<svg width="802" height="228" xmlns="http://www.w3.org/2000/svg" xmlns:xlink="http://www.w3.org/1999/xlink" overflow="hidden"><defs><clipPath id="clip0"><rect x="185" y="207" width="802" height="228"/></clipPath></defs><g clip-path="url(#clip0)" transform="translate(-185 -207)"><rect x="185" y="208" width="743" height="198" fill="#323B4B"/><text fill="#FFFFFF" font-family="TencentSans,TencentSans_MSFontService,sans-serif" font-weight="300" font-size="107" transform="translate(337.417 345)">TenCirChem</text><path d="M252 267C252 257.611 259.611 250 269 250 278.389 250 286 257.611 286 267 286 276.389 278.389 284 269 284 259.611 284 252 276.389 252 267Z" fill="#FFFFFF" fill-rule="evenodd"/><path d="M293 322.5C293 313.387 300.611 306 310 306 319.389 306 327 313.387 327 322.5 327 331.613 319.389 339 310 339 300.611 339 293 331.613 293 322.5Z" fill="#FFFFFF" fill-rule="evenodd"/><path d="M236 349C236 339.611 243.611 332 253 332 262.389 332 270 339.611 270 349 270 358.389 262.389 366 253 366 243.611 366 236 358.389 236 349Z" fill="#FFFFFF" fill-rule="evenodd"/><path d="M205 320C205 310.611 212.611 303 222 303 231.389 303 239 310.611 239 320 239 329.389 231.389 337 222 337 212.611 337 205 329.389 205 320Z" fill="#FFFFFF" fill-rule="evenodd"/><path d="M269 266 269 302.018" stroke="#FFFFFF" stroke-width="8" fill="none" fill-rule="evenodd"/><path d="M312.22 322.697 271 311" stroke="#FFFFFF" stroke-width="8" fill="none" fill-rule="evenodd"/><path d="M252.166 352.049 266.476 318.371" stroke="#FFFFFF" stroke-width="8" fill="none" fill-rule="evenodd"/><path d="M0 0 31.7286 7.95265" stroke="#FFFFFF" stroke-width="8" fill="none" fill-rule="evenodd" transform="matrix(1 0 0 -1 229 318.953)"/><path d="M254 300 258.011 319.754 276.826 327 284 300.141 254 300Z" fill="#FFFFFF" fill-rule="evenodd"/></g></svg>