<svg width="2940" height="2351" xmlns="http://www.w3.org/2000/svg" xmlns:xlink="http://www.w3.org/1999/xlink" xml:space="preserve" overflow="hidden"><defs><clipPath id="clip0"><rect x="519" y="162" width="2940" height="2351"/></clipPath></defs><g clip-path="url(#clip0)" transform="translate(-519 -162)"><path d="M591 2217 2669.74 2217" stroke="#7F7F7F" stroke-width="10.3125" stroke-miterlimit="8" fill="none" fill-rule="evenodd"/><path d="M0 0 0.000360892 909.449" stroke="#7F7F7F" stroke-width="10.3125" stroke-miterlimit="8" fill="none" fill-rule="evenodd" transform="matrix(1 0 0 -1 589 2217.45)"/><path d="M0 0 0.000360892 909.449" stroke="#7F7F7F" stroke-width="10.3125" stroke-miterlimit="8" fill="none" fill-rule="evenodd" transform="matrix(1 0 0 -1 1372 2217.45)"/><path d="M0 0 0.000360892 909.449" stroke="#7F7F7F" stroke-width="10.3125" stroke-miterlimit="8" fill="none" fill-rule="evenodd" transform="matrix(1 0 0 -1 2151 2214.45)"/><path d="M0 0 0.000360892 667.408" stroke="#ED7D31" stroke-width="10.3125" stroke-miterlimit="8" fill="none" fill-rule="evenodd" transform="matrix(1 0 0 -1 852 2217.41)"/><path d="M0 0 0.000360892 667.408" stroke="#ED7D31" stroke-width="10.3125" stroke-miterlimit="8" fill="none" fill-rule="evenodd" transform="matrix(1 0 0 -1 1631 2214.41)"/><path d="M0 0 0.000360892 667.408" stroke="#ED7D31" stroke-width="10.3125" stroke-miterlimit="8" fill="none" fill-rule="evenodd" transform="matrix(1 0 0 -1 1112 2214.41)"/><path d="M0 0 0.000360892 667.408" stroke="#ED7D31" stroke-width="10.3125" stroke-miterlimit="8" fill="none" fill-rule="evenodd" transform="matrix(1 0 0 -1 1891 2217.41)"/><path d="M0 0 0.000360892 667.408" stroke="#ED7D31" stroke-width="10.3125" stroke-miterlimit="8" fill="none" fill-rule="evenodd" transform="matrix(1 0 0 -1 2670 2217.41)"/><path d="M0 0 0.000360892 667.408" stroke="#ED7D31" stroke-width="10.3125" stroke-miterlimit="8" fill="none" fill-rule="evenodd" transform="matrix(1 0 0 -1 2411 2217.41)"/><path d="M0 0 0.000360892 255.238" stroke="#7F7F7F" stroke-width="10.3125" stroke-miterlimit="8" fill="none" fill-rule="evenodd" transform="matrix(1 0 0 -1 982 1563.24)"/><path d="M0 0 0.000360892 255.238" stroke="#7F7F7F" stroke-width="10.3125" stroke-miterlimit="8" fill="none" fill-rule="evenodd" transform="matrix(1 0 0 -1 1761 1563.24)"/><rect x="527" y="2149" width="130" height="130" stroke="#2F5597" stroke-width="10.3125" stroke-miterlimit="8" fill="#8FAADC"/><path d="M787 2214C787 2178.1 816.101 2149 852 2149 887.899 2149 917 2178.1 917 2214 917 2249.9 887.899 2279 852 2279 816.101 2279 787 2249.9 787 2214Z" stroke="#548235" stroke-width="10.3125" stroke-miterlimit="8" fill="#A9D18E" fill-rule="evenodd"/><path d="M1047 2214C1047 2178.1 1076.1 2149 1112 2149 1147.9 2149 1177 2178.1 1177 2214 1177 2249.9 1147.9 2279 1112 2279 1076.1 2279 1047 2249.9 1047 2214Z" stroke="#548235" stroke-width="10.3125" stroke-miterlimit="8" fill="#A9D18E" fill-rule="evenodd"/><rect x="1307" y="2149" width="130" height="130" stroke="#2F5597" stroke-width="10.3125" stroke-miterlimit="8" fill="#8FAADC"/><path d="M1567 2214C1567 2178.1 1595.88 2149 1631.5 2149 1667.12 2149 1696 2178.1 1696 2214 1696 2249.9 1667.12 2279 1631.5 2279 1595.88 2279 1567 2249.9 1567 2214Z" stroke="#548235" stroke-width="10.3125" stroke-miterlimit="8" fill="#A9D18E" fill-rule="evenodd"/><path d="M1826 2214C1826 2178.1 1855.1 2149 1891 2149 1926.9 2149 1956 2178.1 1956 2214 1956 2249.9 1926.9 2279 1891 2279 1855.1 2279 1826 2249.9 1826 2214Z" stroke="#548235" stroke-width="10.3125" stroke-miterlimit="8" fill="#A9D18E" fill-rule="evenodd"/><rect x="2086" y="2149" width="130" height="130" stroke="#2F5597" stroke-width="10.3125" stroke-miterlimit="8" fill="#8FAADC"/><path d="M2346 2214C2346 2178.1 2375.1 2149 2411 2149 2446.9 2149 2476 2178.1 2476 2214 2476 2249.9 2446.9 2279 2411 2279 2375.1 2279 2346 2249.9 2346 2214Z" stroke="#548235" stroke-width="10.3125" stroke-miterlimit="8" fill="#A9D18E" fill-rule="evenodd"/><path d="M2606 2214C2606 2178.1 2635.1 2149 2671 2149 2706.9 2149 2736 2178.1 2736 2214 2736 2249.9 2706.9 2279 2671 2279 2635.1 2279 2606 2249.9 2606 2214Z" stroke="#548235" stroke-width="10.3125" stroke-miterlimit="8" fill="#A9D18E" fill-rule="evenodd"/><path d="M524 1799.68C524 1773.35 545.346 1752 571.678 1752L2685.32 1752C2711.65 1752 2733 1773.35 2733 1799.68L2733 1964.32C2733 1990.65 2711.65 2012 2685.32 2012L571.678 2012C545.346 2012 524 1990.65 524 1964.32Z" stroke="#7F7F7F" stroke-width="10.3125" stroke-miterlimit="8" fill="#FFFFFF" fill-rule="evenodd"/><path d="M787 1550C787 1514.1 816.101 1485 852 1485L1112 1485C1147.9 1485 1177 1514.1 1177 1550L1177 1550C1177 1585.9 1147.9 1615 1112 1615L852 1615C816.101 1615 787 1585.9 787 1550Z" stroke="#7030A0" stroke-width="10.3125" stroke-miterlimit="8" fill="#CCCCFF" fill-rule="evenodd"/><path d="M1567 1550C1567 1514.1 1596.1 1485 1632 1485L1891 1485C1926.9 1485 1956 1514.1 1956 1550L1956 1550C1956 1585.9 1926.9 1615 1891 1615L1632 1615C1596.1 1615 1567 1585.9 1567 1550Z" stroke="#7030A0" stroke-width="10.3125" stroke-miterlimit="8" fill="#CCCCFF" fill-rule="evenodd"/><path d="M0 0 0.000360892 389.764" stroke="#7F7F7F" stroke-width="10.3125" stroke-miterlimit="8" fill="none" fill-rule="evenodd" transform="matrix(1 0 0 -1 589 1405.76)"/><path d="M0 0 0.000360892 389.764" stroke="#7F7F7F" stroke-width="10.3125" stroke-miterlimit="8" fill="none" fill-rule="evenodd" transform="matrix(1 0 0 -1 2151 1405.76)"/><path d="M0 0 0.000360892 389.764" stroke="#7F7F7F" stroke-width="10.3125" stroke-miterlimit="8" fill="none" fill-rule="evenodd" transform="matrix(1 0 0 -1 1761 1405.76)"/><path d="M0 0 0.000360892 389.764" stroke="#7F7F7F" stroke-width="10.3125" stroke-miterlimit="8" fill="none" fill-rule="evenodd" transform="matrix(1 0 0 -1 1372 1405.76)"/><path d="M0 0 0.000360892 389.764" stroke="#7F7F7F" stroke-width="10.3125" stroke-miterlimit="8" fill="none" fill-rule="evenodd" transform="matrix(1 0 0 -1 982 1405.76)"/><path d="M0 0 0.000360892 389.764" stroke="#7F7F7F" stroke-width="10.3125" stroke-miterlimit="8" fill="none" fill-rule="evenodd" transform="matrix(1 0 0 -1 2541 1405.76)"/><path d="M589 1211 2537.82 1211" stroke="#7F7F7F" stroke-width="10.3125" stroke-miterlimit="8" fill="none" fill-rule="evenodd"/><rect x="527" y="1146" width="130" height="130" stroke="#BF9000" stroke-width="10.3125" stroke-miterlimit="8" fill="#FFD966"/><rect x="2476" y="1146" width="130" height="130" stroke="#BF9000" stroke-width="10.3125" stroke-miterlimit="8" fill="#FFD966"/><rect x="917" y="1146" width="130" height="130" stroke="#BF9000" stroke-width="10.3125" stroke-miterlimit="8" fill="#FFD966"/><rect x="1696" y="1146" width="130" height="130" stroke="#BF9000" stroke-width="10.3125" stroke-miterlimit="8" fill="#FFD966"/><rect x="1307" y="1146" width="130" height="130" stroke="#BF9000" stroke-width="10.3125" stroke-miterlimit="8" fill="#FFD966"/><rect x="2086" y="1146" width="130" height="130" stroke="#BF9000" stroke-width="10.3125" stroke-miterlimit="8" fill="#FFD966"/><path d="M0 0 2078.74 0.000360892" stroke="#7F7F7F" stroke-width="10.3125" stroke-miterlimit="8" fill="none" fill-rule="evenodd" transform="matrix(1 0 0 -1 591 229)"/><path d="M589 229 589 1138.45" stroke="#7F7F7F" stroke-width="10.3125" stroke-miterlimit="8" fill="none" fill-rule="evenodd"/><path d="M1372 229 1372 1138.45" stroke="#7F7F7F" stroke-width="10.3125" stroke-miterlimit="8" fill="none" fill-rule="evenodd"/><path d="M2151 232 2151 1141.45" stroke="#7F7F7F" stroke-width="10.3125" stroke-miterlimit="8" fill="none" fill-rule="evenodd"/><path d="M852 229 852.001 896.408" stroke="#ED7D31" stroke-width="10.3125" stroke-miterlimit="8" fill="none" fill-rule="evenodd"/><path d="M1631 232 1631 899.408" stroke="#ED7D31" stroke-width="10.3125" stroke-miterlimit="8" fill="none" fill-rule="evenodd"/><path d="M1112 232 1112 899.408" stroke="#ED7D31" stroke-width="10.3125" stroke-miterlimit="8" fill="none" fill-rule="evenodd"/><path d="M1891 229 1891 896.408" stroke="#ED7D31" stroke-width="10.3125" stroke-miterlimit="8" fill="none" fill-rule="evenodd"/><path d="M2670 229 2670 896.408" stroke="#ED7D31" stroke-width="10.3125" stroke-miterlimit="8" fill="none" fill-rule="evenodd"/><path d="M2411 229 2411 896.408" stroke="#ED7D31" stroke-width="10.3125" stroke-miterlimit="8" fill="none" fill-rule="evenodd"/><path d="M982 883 982 1138.24" stroke="#7F7F7F" stroke-width="10.3125" stroke-miterlimit="8" fill="none" fill-rule="evenodd"/><path d="M1761 883 1761 1138.24" stroke="#7F7F7F" stroke-width="10.3125" stroke-miterlimit="8" fill="none" fill-rule="evenodd"/><rect x="0" y="0" width="130" height="130" stroke="#2F5597" stroke-width="10.3125" stroke-miterlimit="8" fill="#8FAADC" transform="matrix(1 0 0 -1 527 297)"/><path d="M0 65C-8.27539e-15 29.1015 29.1016-8.27536e-15 65.0002-1.65507e-14 100.899-3.31015e-14 130 29.1015 130 65 130 100.898 100.899 130 65.0002 130 29.1016 130-4.13769e-14 100.898 0 65Z" stroke="#548235" stroke-width="10.3125" stroke-miterlimit="8" fill="#A9D18E" fill-rule="evenodd" transform="matrix(1 0 0 -1 787 297)"/><path d="M0 65C-8.27536e-15 29.1015 29.1015-8.27536e-15 65-1.65507e-14 100.898-3.31015e-14 130 29.1015 130 65 130 100.898 100.898 130 65 130 29.1015 130-4.13768e-14 100.898 0 65Z" stroke="#548235" stroke-width="10.3125" stroke-miterlimit="8" fill="#A9D18E" fill-rule="evenodd" transform="matrix(1 0 0 -1 1047 297)"/><rect x="0" y="0" width="130" height="130" stroke="#2F5597" stroke-width="10.3125" stroke-miterlimit="8" fill="#8FAADC" transform="matrix(1 0 0 -1 1307 297)"/><path d="M0 65C-8.2117e-15 29.1015 28.8776-8.27536e-15 64.5-1.65507e-14 100.122-3.31015e-14 129 29.1015 129 65 129 100.898 100.122 130 64.5 130 28.8776 130-4.10585e-14 100.898 0 65Z" stroke="#548235" stroke-width="10.3125" stroke-miterlimit="8" fill="#A9D18E" fill-rule="evenodd" transform="matrix(1 0 0 -1 1567 297)"/><path d="M0 65C-8.27536e-15 29.1015 29.1015-8.27536e-15 65-1.65507e-14 100.898-3.31015e-14 130 29.1015 130 65 130 100.898 100.898 130 65 130 29.1015 130-4.13768e-14 100.898 0 65Z" stroke="#548235" stroke-width="10.3125" stroke-miterlimit="8" fill="#A9D18E" fill-rule="evenodd" transform="matrix(1 0 0 -1 1826 297)"/><rect x="0" y="0" width="130" height="130" stroke="#2F5597" stroke-width="10.3125" stroke-miterlimit="8" fill="#8FAADC" transform="matrix(1 0 0 -1 2086 297)"/><path d="M0 65C-8.27536e-15 29.1015 29.1015-8.27536e-15 65-1.65507e-14 100.898-3.31015e-14 130 29.1015 130 65 130 100.898 100.898 130 65 130 29.1015 130-4.13768e-14 100.898 0 65Z" stroke="#548235" stroke-width="10.3125" stroke-miterlimit="8" fill="#A9D18E" fill-rule="evenodd" transform="matrix(1 0 0 -1 2346 297)"/><path d="M0 65C-8.27536e-15 29.1015 29.1015-8.27536e-15 65-1.65507e-14 100.898-3.31015e-14 130 29.1015 130 65 130 100.898 100.898 130 65 130 29.1015 130-4.13768e-14 100.898 0 65Z" stroke="#548235" stroke-width="10.3125" stroke-miterlimit="8" fill="#A9D18E" fill-rule="evenodd" transform="matrix(1 0 0 -1 2606 297)"/><path d="M0 47.6781C-8.7886e-15 21.3462 21.3462 0 47.6781 0L2161.32 0C2187.65-8.78861e-15 2209 21.3462 2209 47.6781L2209 212.322C2209 238.654 2187.65 260 2161.32 260L47.6781 260C21.3462 260 0 238.654 0 212.322Z" stroke="#7F7F7F" stroke-width="10.3125" stroke-miterlimit="8" fill="#FFFFFF" fill-rule="evenodd" transform="matrix(1 0 0 -1 524 694)"/><path d="M0 65.0001C-1.24131e-14 29.1016 29.1015 0 65 0L325 0C360.899-1.24131e-14 390 29.1016 390 65.0001L390 65.0001C390 100.899 360.899 130 325 130L65 130C29.1015 130 0 100.899 0 65.0001Z" stroke="#7030A0" stroke-width="10.3125" stroke-miterlimit="8" fill="#CCCCFF" fill-rule="evenodd" transform="matrix(1 0 0 -1 787 961)"/><path d="M0 65.0001C-1.23812e-14 29.1016 29.1015-1.23812e-14 65.0001-2.47625e-14L324 0C359.898-2.47625e-14 389 29.1016 389 65.0001L389 65.0001C389 100.899 359.898 130 324 130L65.0001 130C29.1015 130 0 100.899 0 65.0001Z" stroke="#7030A0" stroke-width="10.3125" stroke-miterlimit="8" fill="#CCCCFF" fill-rule="evenodd" transform="matrix(1 0 0 -1 1567 961)"/><text font-family="Times New Roman,Times New Roman_MSFontService,sans-serif" font-weight="400" font-size="110" transform="matrix(1 0 0 1 2591.37 1105)">d</text><text font-family="Times New Roman,Times New Roman_MSFontService,sans-serif" font-weight="400" font-size="110" transform="matrix(1 0 0 1 2591.37 1402)">b</text><text font-family="Times New Roman,Times New Roman_MSFontService,sans-serif" font-weight="400" font-size="110" transform="matrix(1 0 0 1 2731.86 870)">c</text><text font-family="Times New Roman,Times New Roman_MSFontService,sans-serif" font-weight="400" font-size="110" transform="matrix(1 0 0 1 2729.75 1652)">a</text><text font-family="Times New Roman,Times New Roman_MSFontService,sans-serif" font-weight="400" font-size="110" transform="matrix(1 0 0 1 2449.79 1652)">a</text><text font-family="Times New Roman,Times New Roman_MSFontService,sans-serif" font-weight="400" font-size="110" transform="matrix(1 0 0 1 2455.39 872)">c</text><text font-family="Times New Roman,Times New Roman_MSFontService,sans-serif" font-weight="400" font-size="92" transform="matrix(1 0 0 1 1294.74 2436)">contracted_h</text><text font-family="Times New Roman,Times New Roman_MSFontService,sans-serif" font-weight="400" font-size="83" transform="matrix(1 0 0 1 2845.57 1626)">v</text><text font-family="Times New Roman,Times New Roman_MSFontService,sans-serif" font-weight="400" font-size="83" transform="matrix(1 0 0 1 2886.82 1626)">-</text><text font-family="Times New Roman,Times New Roman_MSFontService,sans-serif" font-weight="400" font-size="83" transform="matrix(1 0 0 1 2914.32 1626)">{k}</text><text font-family="Times New Roman,Times New Roman_MSFontService,sans-serif" font-weight="400" font-size="83" transform="matrix(1 0 0 1 3034.63 1626)">-</text><text font-family="Times New Roman,Times New Roman_MSFontService,sans-serif" font-weight="400" font-size="83" transform="matrix(1 0 0 1 3062.13 1626)">0</text><text font-family="Times New Roman,Times New Roman_MSFontService,sans-serif" font-weight="400" font-size="83" transform="matrix(1 0 0 1 3103.38 1626)">-</text><text font-family="Times New Roman,Times New Roman_MSFontService,sans-serif" font-weight="400" font-size="83" transform="matrix(1 0 0 1 3130.88 1626)">bottom</text><text font-family="Times New Roman,Times New Roman_MSFontService,sans-serif" font-weight="400" font-size="83" transform="matrix(1 0 0 1 2845.57 1725)">v</text><text font-family="Times New Roman,Times New Roman_MSFontService,sans-serif" font-weight="400" font-size="83" transform="matrix(1 0 0 1 2886.82 1725)">-</text><text font-family="Times New Roman,Times New Roman_MSFontService,sans-serif" font-weight="400" font-size="83" transform="matrix(1 0 0 1 2914.32 1725)">{k}</text><text font-family="Times New Roman,Times New Roman_MSFontService,sans-serif" font-weight="400" font-size="83" transform="matrix(1 0 0 1 3034.63 1725)">-</text><text font-family="Times New Roman,Times New Roman_MSFontService,sans-serif" font-weight="400" font-size="83" transform="matrix(1 0 0 1 3062.13 1725)">1</text><text font-family="Times New Roman,Times New Roman_MSFontService,sans-serif" font-weight="400" font-size="83" transform="matrix(1 0 0 1 3103.38 1725)">-</text><text font-family="Times New Roman,Times New Roman_MSFontService,sans-serif" font-weight="400" font-size="83" transform="matrix(1 0 0 1 3130.88 1725)">bottom</text><text font-family="Times New Roman,Times New Roman_MSFontService,sans-serif" font-weight="400" font-size="83" transform="matrix(1 0 0 1 2845.57 1392)">p</text><text font-family="Times New Roman,Times New Roman_MSFontService,sans-serif" font-weight="400" font-size="83" transform="matrix(1 0 0 1 2886.82 1392)">-</text><text font-family="Times New Roman,Times New Roman_MSFontService,sans-serif" font-weight="400" font-size="83" transform="matrix(1 0 0 1 2914.32 1392)">{k}</text><text font-family="Times New Roman,Times New Roman_MSFontService,sans-serif" font-weight="400" font-size="83" transform="matrix(1 0 0 1 3034.63 1392)">-</text><text font-family="Times New Roman,Times New Roman_MSFontService,sans-serif" font-weight="400" font-size="83" transform="matrix(1 0 0 1 3062.13 1392)">bottom</text><text font-family="Times New Roman,Times New Roman_MSFontService,sans-serif" font-weight="400" font-size="83" transform="matrix(1 0 0 1 2863.22 1107)">p</text><text font-family="Times New Roman,Times New Roman_MSFontService,sans-serif" font-weight="400" font-size="83" transform="matrix(1 0 0 1 2904.47 1107)">-</text><text font-family="Times New Roman,Times New Roman_MSFontService,sans-serif" font-weight="400" font-size="83" transform="matrix(1 0 0 1 2931.97 1107)">{k</text><text font-family="Times New Roman,Times New Roman_MSFontService,sans-serif" font-weight="400" font-size="83" transform="matrix(1 0 0 1 3012.76 1107)">}</text><text font-family="Times New Roman,Times New Roman_MSFontService,sans-serif" font-weight="400" font-size="83" transform="matrix(1 0 0 1 3052.29 1107)">-</text><text font-family="Times New Roman,Times New Roman_MSFontService,sans-serif" font-weight="400" font-size="83" transform="matrix(1 0 0 1 3079.79 1107)">top</text><text font-family="Times New Roman,Times New Roman_MSFontService,sans-serif" font-weight="400" font-size="83" transform="matrix(1 0 0 1 2863.22 816)">v</text><text font-family="Times New Roman,Times New Roman_MSFontService,sans-serif" font-weight="400" font-size="83" transform="matrix(1 0 0 1 2904.47 816)">-</text><text font-family="Times New Roman,Times New Roman_MSFontService,sans-serif" font-weight="400" font-size="83" transform="matrix(1 0 0 1 2931.97 816)">{k}</text><text font-family="Times New Roman,Times New Roman_MSFontService,sans-serif" font-weight="400" font-size="83" transform="matrix(1 0 0 1 3052.29 816)">-</text><text font-family="Times New Roman,Times New Roman_MSFontService,sans-serif" font-weight="400" font-size="83" transform="matrix(1 0 0 1 3079.79 816)">0</text><text font-family="Times New Roman,Times New Roman_MSFontService,sans-serif" font-weight="400" font-size="83" transform="matrix(1 0 0 1 3121.04 816)">-</text><text font-family="Times New Roman,Times New Roman_MSFontService,sans-serif" font-weight="400" font-size="83" transform="matrix(1 0 0 1 3148.54 816)">top</text><text font-family="Times New Roman,Times New Roman_MSFontService,sans-serif" font-weight="400" font-size="83" transform="matrix(1 0 0 1 2863.22 915)">v</text><text font-family="Times New Roman,Times New Roman_MSFontService,sans-serif" font-weight="400" font-size="83" transform="matrix(1 0 0 1 2904.47 915)">-</text><text font-family="Times New Roman,Times New Roman_MSFontService,sans-serif" font-weight="400" font-size="83" transform="matrix(1 0 0 1 2931.97 915)">{k}</text><text font-family="Times New Roman,Times New Roman_MSFontService,sans-serif" font-weight="400" font-size="83" transform="matrix(1 0 0 1 3052.29 915)">-</text><text font-family="Times New Roman,Times New Roman_MSFontService,sans-serif" font-weight="400" font-size="83" transform="matrix(1 0 0 1 3079.79 915)">1</text><text font-family="Times New Roman,Times New Roman_MSFontService,sans-serif" font-weight="400" font-size="83" transform="matrix(1 0 0 1 3121.04 915)">-</text><text font-family="Times New Roman,Times New Roman_MSFontService,sans-serif" font-weight="400" font-size="83" transform="matrix(1 0 0 1 3148.54 915)">top</text></g></svg>