<svg width="2695" height="1940" xmlns="http://www.w3.org/2000/svg" xmlns:xlink="http://www.w3.org/1999/xlink" xml:space="preserve" overflow="hidden"><defs><clipPath id="clip0"><rect x="2167" y="348" width="2695" height="1940"/></clipPath></defs><g clip-path="url(#clip0)" transform="translate(-2167 -348)"><path d="M3751 587 3751 1236.41" stroke="#7F7F7F" stroke-width="10.3125" stroke-miterlimit="8" fill="none" fill-rule="evenodd"/><path d="M4659 975 4659 1230.16" stroke="#7F7F7F" stroke-width="10.3125" stroke-miterlimit="8" fill="none" fill-rule="evenodd"/><path d="M2805 1035 2805 1353.54" stroke="#ED7D31" stroke-width="10.3125" stroke-miterlimit="8" fill="none" fill-rule="evenodd"/><path d="M2809 571 2809 889.544" stroke="#ED7D31" stroke-width="10.3125" stroke-miterlimit="8" fill="none" fill-rule="evenodd"/><path d="M2547 574 2547 892.544" stroke="#ED7D31" stroke-width="10.3125" stroke-miterlimit="8" fill="none" fill-rule="evenodd"/><path d="M0 0 0.000360892 779.528" stroke="#7F7F7F" stroke-width="10.3125" stroke-miterlimit="8" fill="none" fill-rule="evenodd" transform="matrix(1 0 0 -1 2285 1351.53)"/><path d="M0 0 0.000360892 779.528" stroke="#ED7D31" stroke-width="10.3125" stroke-miterlimit="8" fill="none" fill-rule="evenodd" transform="matrix(1 0 0 -1 3064 1353.53)"/><path d="M0 0 0.000360892 779.528" stroke="#ED7D31" stroke-width="10.3125" stroke-miterlimit="8" fill="none" fill-rule="evenodd" transform="matrix(1 0 0 -1 3325 1351.53)"/><path d="M2547 1029 2547 1347.54" stroke="#ED7D31" stroke-width="10.3125" stroke-miterlimit="8" fill="none" fill-rule="evenodd"/><path d="M2285 574 3324.37 574" stroke="#7F7F7F" stroke-width="10.3125" stroke-miterlimit="8" fill="none" fill-rule="evenodd"/><rect x="2222" y="506" width="130" height="130" stroke="#2F5597" stroke-width="10.3125" stroke-miterlimit="8" fill="#8FAADC"/><path d="M2482 571C2482 535.102 2511.1 506 2547 506 2582.9 506 2612 535.102 2612 571 2612 606.898 2582.9 636 2547 636 2511.1 636 2482 606.898 2482 571Z" stroke="#548235" stroke-width="10.3125" stroke-miterlimit="8" fill="#A9D18E" fill-rule="evenodd"/><path d="M2741 571C2741 535.102 2770.1 506 2806 506 2841.9 506 2871 535.102 2871 571 2871 606.898 2841.9 636 2806 636 2770.1 636 2741 606.898 2741 571Z" stroke="#548235" stroke-width="10.3125" stroke-miterlimit="8" fill="#A9D18E" fill-rule="evenodd"/><path d="M3261 571C3261 535.102 3290.1 506 3326 506 3361.9 506 3391 535.102 3391 571 3391 606.898 3361.9 636 3326 636 3290.1 636 3261 606.898 3261 571Z" stroke="#548235" stroke-width="10.3125" stroke-miterlimit="8" fill="#A9D18E" fill-rule="evenodd"/><path d="M3001 574C3001 538.102 3030.1 509 3066 509 3101.9 509 3131 538.102 3131 574 3131 609.899 3101.9 639 3066 639 3030.1 639 3001 609.899 3001 574Z" stroke="#548235" stroke-width="10.3125" stroke-miterlimit="8" fill="#A9D18E" fill-rule="evenodd"/><path d="M2285 1354 3324.37 1354" stroke="#7F7F7F" stroke-width="10.3125" stroke-miterlimit="8" fill="none" fill-rule="evenodd"/><rect x="2222" y="1286" width="130" height="130" stroke="#2F5597" stroke-width="10.3125" stroke-miterlimit="8" fill="#8FAADC"/><path d="M2482 1351C2482 1315.1 2511.1 1286 2547 1286 2582.9 1286 2612 1315.1 2612 1351 2612 1386.9 2582.9 1416 2547 1416 2511.1 1416 2482 1386.9 2482 1351Z" stroke="#548235" stroke-width="10.3125" stroke-miterlimit="8" fill="#A9D18E" fill-rule="evenodd"/><path d="M2741 1351C2741 1315.1 2770.1 1286 2806 1286 2841.9 1286 2871 1315.1 2871 1351 2871 1386.9 2841.9 1416 2806 1416 2770.1 1416 2741 1386.9 2741 1351Z" stroke="#548235" stroke-width="10.3125" stroke-miterlimit="8" fill="#A9D18E" fill-rule="evenodd"/><path d="M3261 1351C3261 1315.1 3290.1 1286 3326 1286 3361.9 1286 3391 1315.1 3391 1351 3391 1386.9 3361.9 1416 3326 1416 3290.1 1416 3261 1386.9 3261 1351Z" stroke="#548235" stroke-width="10.3125" stroke-miterlimit="8" fill="#A9D18E" fill-rule="evenodd"/><path d="M3001 1354C3001 1318.1 3030.1 1289 3066 1289 3101.9 1289 3131 1318.1 3131 1354 3131 1389.9 3101.9 1419 3066 1419 3030.1 1419 3001 1389.9 3001 1354Z" stroke="#548235" stroke-width="10.3125" stroke-miterlimit="8" fill="#A9D18E" fill-rule="evenodd"/><path d="M2605.68 1553.11C2604.66 1553.11 2603.68 1553.29 2602.74 1553.65 2601.81 1554.02 2600.84 1554.64 2599.83 1555.52 2598.81 1556.39 2597.85 1557.58 2596.93 1559.06 2596.01 1560.55 2595.19 1562.3 2594.46 1564.31 2593.73 1566.32 2593.03 1568.9 2592.35 1572.03L2590.93 1578.56C2590.88 1578.85 2590.82 1579.28 2590.75 1579.83 2590.68 1580.39 2590.65 1580.89 2590.65 1581.35 2590.65 1583.08 2591.36 1584.41 2592.78 1585.34 2594.19 1586.28 2596.08 1586.74 2598.43 1586.74 2601.21 1586.74 2603.68 1585.61 2605.82 1583.36 2607.97 1581.1 2609.64 1578 2610.83 1574.04 2612.02 1570.08 2612.61 1566.14 2612.61 1562.22 2612.61 1560.47 2612.43 1558.93 2612.07 1557.62 2611.7 1556.31 2611.01 1555.23 2609.98 1554.38 2608.95 1553.53 2607.52 1553.11 2605.68 1553.11ZM2606.74 1549.9C2609.36 1549.9 2611.67 1550.44 2613.67 1551.5 2615.67 1552.57 2617.18 1554.12 2618.21 1556.14 2619.23 1558.17 2619.75 1560.66 2619.75 1563.6 2619.75 1568.19 2618.85 1572.55 2617.05 1576.67 2615.25 1580.79 2612.76 1584.03 2609.55 1586.4 2606.35 1588.76 2602.77 1589.94 2598.79 1589.94 2596.96 1589.94 2595.21 1589.78 2593.57 1589.46 2591.92 1589.13 2590.27 1588.58 2588.62 1587.8L2584.41 1606.8 2577.76 1606.8 2585.99 1570.13C2586.96 1565.8 2588.35 1562.18 2590.16 1559.27 2591.97 1556.35 2594.27 1554.06 2597.05 1552.4 2599.83 1550.73 2603.06 1549.9 2606.74 1549.9Z" fill-rule="evenodd"/><text fill="#000000" fill-opacity="0" font-family="Arial,Arial_MSFontService,sans-serif" font-size="56.9004" x="2577.76" y="1599.69">๐</text><path d="M2603.74 1530.86 2609.17 1530.86 2622.95 1543.62 2620.76 1545.93 2606.46 1536.08 2606.01 1536.08 2591.46 1545.93 2589.27 1543.62Z" fill-rule="evenodd"/><text fill="#000000" fill-opacity="0" font-family="Arial,Arial_MSFontService,sans-serif" font-size="15.0762" x="2589.27" y="1544.05">เท</text><path d="M2683.58 1526.97 2701.65 1526.97 2701.65 1604.26 2683.58 1604.26 2683.58 1601.14 2694.93 1601.14 2694.93 1530.09 2683.58 1530.09ZM2633.81 1526.97 2651.88 1526.97 2651.88 1530.09 2640.53 1530.09 2640.53 1601.14 2651.88 1601.14 2651.88 1604.26 2633.81 1604.26Z" fill-rule="evenodd"/><path d="M2674.31 1531.34 2676.7 1531.34 2666.73 1576.21C2666.14 1578.88 2665.84 1580.88 2665.84 1582.2 2665.84 1583.28 2666.02 1584.07 2666.37 1584.55 2666.72 1585.04 2667.27 1585.28 2668.03 1585.28 2668.84 1585.28 2669.71 1584.95 2670.62 1584.29 2671.54 1583.63 2672.84 1582.37 2674.52 1580.5L2676.83 1582.77C2674.2 1585.53 2672.06 1587.41 2670.4 1588.42 2668.74 1589.44 2666.88 1589.94 2664.83 1589.94 2663.07 1589.94 2661.67 1589.3 2660.61 1588.02 2659.56 1586.74 2659.03 1585.09 2659.03 1583.1 2659.03 1581.29 2659.41 1578.66 2660.17 1575.23L2667.42 1542.77C2667.75 1541.34 2667.98 1540.2 2668.11 1539.35 2668.25 1538.5 2668.31 1537.7 2668.31 1536.98 2668.31 1536.16 2668.17 1535.55 2667.87 1535.13 2667.57 1534.71 2667.15 1534.41 2666.59 1534.22 2666.04 1534.03 2665.05 1533.9 2663.61 1533.81L2664.1 1531.71Z" fill-rule="evenodd"/><text fill="#000000" fill-opacity="0" font-family="Arial,Arial_MSFontService,sans-serif" font-size="58.6025" x="2659.03" y="1582.62">๐</text><text font-family="Times New Roman,Times New Roman_MSFontService,sans-serif" font-weight="400" font-size="83" transform="matrix(1 0 0 1 2710.71 1589)">, </text><path d="M2780.49 1553.11C2779.46 1553.11 2778.49 1553.29 2777.55 1553.65 2776.62 1554.02 2775.65 1554.64 2774.64 1555.52 2773.62 1556.39 2772.66 1557.58 2771.74 1559.06 2770.82 1560.55 2769.99 1562.3 2769.27 1564.31 2768.54 1566.32 2767.83 1568.9 2767.16 1572.03L2765.74 1578.56C2765.69 1578.85 2765.62 1579.28 2765.56 1579.83 2765.49 1580.39 2765.46 1580.89 2765.46 1581.35 2765.46 1583.08 2766.17 1584.41 2767.58 1585.34 2769 1586.28 2770.89 1586.74 2773.24 1586.74 2776.02 1586.74 2778.49 1585.61 2780.63 1583.36 2782.78 1581.1 2784.45 1578 2785.64 1574.04 2786.83 1570.08 2787.42 1566.14 2787.42 1562.22 2787.42 1560.47 2787.24 1558.93 2786.87 1557.62 2786.51 1556.31 2785.81 1555.23 2784.79 1554.38 2783.76 1553.53 2782.33 1553.11 2780.49 1553.11ZM2781.55 1549.9C2784.17 1549.9 2786.48 1550.44 2788.48 1551.5 2790.47 1552.57 2791.99 1554.12 2793.01 1556.14 2794.04 1558.17 2794.55 1560.66 2794.55 1563.6 2794.55 1568.19 2793.66 1572.55 2791.86 1576.67 2790.06 1580.79 2787.56 1584.03 2784.36 1586.4 2781.16 1588.76 2777.57 1589.94 2773.6 1589.94 2771.76 1589.94 2770.02 1589.78 2768.37 1589.46 2766.73 1589.13 2765.08 1588.58 2763.43 1587.8L2759.21 1606.8 2752.57 1606.8 2760.8 1570.13C2761.77 1565.8 2763.16 1562.18 2764.97 1559.27 2766.78 1556.35 2769.08 1554.06 2771.86 1552.4 2774.64 1550.73 2777.87 1549.9 2781.55 1549.9Z" fill-rule="evenodd"/><text fill="#000000" fill-opacity="0" font-family="Arial,Arial_MSFontService,sans-serif" font-size="56.9004" x="2752.57" y="1599.69">๐</text><path d="M2778.55 1530.86 2783.98 1530.86 2797.76 1543.62 2795.57 1545.93 2781.27 1536.08 2780.82 1536.08 2766.27 1545.93 2764.08 1543.62Z" fill-rule="evenodd"/><text fill="#000000" fill-opacity="0" font-family="Arial,Arial_MSFontService,sans-serif" font-size="15.0762" x="2764.08" y="1544.05">เท</text><path d="M2858.39 1526.97 2876.46 1526.97 2876.46 1604.26 2858.39 1604.26 2858.39 1601.14 2869.73 1601.14 2869.73 1530.09 2858.39 1530.09ZM2808.61 1526.97 2826.69 1526.97 2826.69 1530.09 2815.34 1530.09 2815.34 1601.14 2826.69 1601.14 2826.69 1604.26 2808.61 1604.26Z" fill-rule="evenodd"/><path d="M2849.12 1531.34 2851.51 1531.34 2841.54 1576.21C2840.95 1578.88 2840.65 1580.88 2840.65 1582.2 2840.65 1583.28 2840.83 1584.07 2841.18 1584.55 2841.53 1585.04 2842.08 1585.28 2842.84 1585.28 2843.65 1585.28 2844.51 1584.95 2845.43 1584.29 2846.35 1583.63 2847.65 1582.37 2849.32 1580.5L2851.63 1582.77C2849.01 1585.53 2846.87 1587.41 2845.21 1588.42 2843.55 1589.44 2841.69 1589.94 2839.64 1589.94 2837.88 1589.94 2836.48 1589.3 2835.42 1588.02 2834.37 1586.74 2833.84 1585.09 2833.84 1583.1 2833.84 1581.29 2834.22 1578.66 2834.98 1575.23L2842.23 1542.77C2842.56 1541.34 2842.79 1540.2 2842.92 1539.35 2843.06 1538.5 2843.12 1537.7 2843.12 1536.98 2843.12 1536.16 2842.97 1535.55 2842.68 1535.13 2842.38 1534.71 2841.95 1534.41 2841.4 1534.22 2840.85 1534.03 2839.85 1533.9 2838.42 1533.81L2838.91 1531.71Z" fill-rule="evenodd"/><text fill="#000000" fill-opacity="0" font-family="Arial,Arial_MSFontService,sans-serif" font-size="58.6025" x="2833.84" y="1582.62">๐</text><path d="M2890.55 1539.37 2924.86 1539.37 2924.86 1543.93 2890.55 1543.93Z" fill-rule="evenodd"/><text fill="#000000" fill-opacity="0" font-family="Arial,Arial_MSFontService,sans-serif" font-size="4.55713" x="2890.55" y="1543.36">โ</text><path d="M2949.17 1520.73 2950.98 1520.73C2950.94 1521.82 2950.91 1522.8 2950.89 1523.66 2950.87 1524.53 2950.86 1525.37 2950.85 1526.18 2950.84 1526.99 2950.83 1527.8 2950.83 1528.59L2950.83 1551.23C2950.83 1551.84 2950.85 1552.38 2950.89 1552.82 2950.93 1553.27 2951 1553.65 2951.09 1553.95 2951.18 1554.26 2951.29 1554.53 2951.44 1554.74 2951.59 1554.96 2951.77 1555.15 2951.97 1555.31 2952.2 1555.55 2952.52 1555.73 2952.92 1555.86 2953.32 1555.99 2953.82 1556.1 2954.44 1556.19 2955.05 1556.28 2955.79 1556.35 2956.66 1556.4 2957.52 1556.45 2958.56 1556.48 2959.77 1556.5L2959.77 1559.09 2936.15 1559.09 2936.15 1556.5C2937.32 1556.46 2938.31 1556.42 2939.13 1556.37 2939.94 1556.32 2940.64 1556.25 2941.21 1556.16 2941.79 1556.07 2942.25 1555.97 2942.6 1555.86 2942.95 1555.75 2943.25 1555.62 2943.51 1555.46 2943.78 1555.28 2944.02 1555.09 2944.22 1554.88 2944.42 1554.67 2944.58 1554.41 2944.7 1554.09 2944.82 1553.77 2944.91 1553.38 2944.98 1552.93 2945.05 1552.47 2945.08 1551.9 2945.08 1551.23L2945.08 1529.87C2945.08 1529.1 2944.94 1528.55 2944.64 1528.23 2944.34 1527.92 2943.91 1527.76 2943.36 1527.76 2942.74 1527.76 2941.83 1528.08 2940.62 1528.71 2939.41 1529.35 2937.84 1530.29 2935.91 1531.54 2935.65 1531.08 2935.41 1530.63 2935.2 1530.17 2934.98 1529.71 2934.75 1529.25 2934.51 1528.77 2936.97 1527.42 2939.41 1526.08 2941.82 1524.73 2944.24 1523.39 2946.68 1522.06 2949.17 1520.73Z" fill-rule="evenodd"/><text fill="#000000" fill-opacity="0" font-family="Arial,Arial_MSFontService,sans-serif" font-size="38.3633" x="2934.51" y="1554.3">1</text><path d="M2225 1108.84C2225 1095.67 2235.67 1085 2248.84 1085L3370.16 1085C3383.33 1085 3394 1095.67 3394 1108.84L3394 1191.16C3394 1204.33 3383.33 1215 3370.16 1215L2248.84 1215C2235.67 1215 2225 1204.33 2225 1191.16Z" stroke="#7F7F7F" stroke-width="10.3125" stroke-miterlimit="8" fill="#FFFFFF" fill-rule="evenodd"/><path d="M2220 733.839C2220 720.673 2230.67 710 2243.84 710L3366.16 710C3379.33 710 3390 720.673 3390 733.839L3390 816.161C3390 829.327 3379.33 840 3366.16 840L2243.84 840C2230.67 840 2220 829.327 2220 816.161Z" stroke="#7F7F7F" stroke-width="10.3125" stroke-miterlimit="8" fill="#FFFFFF" fill-rule="evenodd"/><path d="M0 0 0.000360892 255.238" stroke="#7F7F7F" stroke-width="10.3125" stroke-miterlimit="8" fill="none" fill-rule="evenodd" transform="matrix(6.12323e-17 1 1 -6.12323e-17 2226 1946)"/><path d="M0 0 0.000360892 259.843" stroke="#ED7D31" stroke-width="10.3125" stroke-miterlimit="8" fill="none" fill-rule="evenodd" transform="matrix(6.12323e-17 1 1 -6.12323e-17 2481 1814)"/><path d="M0 0 0.000360892 259.843" stroke="#ED7D31" stroke-width="10.3125" stroke-miterlimit="8" fill="none" fill-rule="evenodd" transform="matrix(6.12323e-17 1 1 -6.12323e-17 2478 2074)"/><path d="M0 0 0.000360892 255.238" stroke="#7F7F7F" stroke-width="10.3125" stroke-miterlimit="8" fill="none" fill-rule="evenodd" transform="matrix(6.12323e-17 1 1 -6.12323e-17 2722 1944)"/><path d="M2742 1750C2777.9 1750 2807 1779.1 2807 1815L2807 2074C2807 2109.9 2777.9 2139 2742 2139L2742 2139C2706.1 2139 2677 2109.9 2677 2074L2677 1815C2677 1779.1 2706.1 1750 2742 1750Z" stroke="#7030A0" stroke-width="10.3125" stroke-miterlimit="8" fill="#CCCCFF" fill-rule="evenodd"/><path d="M2475 1750C2510.9 1750 2540 1779.1 2540 1815L2540 2074C2540 2109.9 2510.9 2139 2475 2139L2475 2139C2439.1 2139 2410 2109.9 2410 2074L2410 1815C2410 1779.1 2439.1 1750 2475 1750Z" stroke="#7030A0" stroke-width="10.3125" stroke-miterlimit="8" fill="#CCCCFF" fill-rule="evenodd"/><path d="M3118.32 1924.42C3116.65 1924.42 3114.89 1924.46 3113.06 1924.55L3107.54 1949.1 3111.76 1949.1C3115.03 1949.1 3117.67 1948.77 3119.68 1948.09 3121.69 1947.42 3123.34 1946.37 3124.63 1944.95 3125.91 1943.53 3126.9 1941.85 3127.6 1939.91 3128.31 1937.96 3128.66 1935.83 3128.66 1933.5 3128.66 1930.37 3127.86 1928.07 3126.27 1926.61 3124.67 1925.15 3122.03 1924.42 3118.32 1924.42ZM3101.34 1920.86 3119.22 1920.86C3122.43 1920.86 3125.07 1921.11 3127.14 1921.61 3129.21 1922.11 3130.91 1922.88 3132.25 1923.92 3133.58 1924.96 3134.58 1926.27 3135.24 1927.87 3135.91 1929.46 3136.24 1931.31 3136.24 1933.42 3136.24 1937.47 3135.28 1940.99 3133.36 1943.96 3131.44 1946.93 3128.84 1949.12 3125.56 1950.52 3122.28 1951.93 3118.34 1952.63 3113.74 1952.63 3110.99 1952.63 3108.69 1952.58 3106.85 1952.47L3104.26 1964.38C3104.02 1965.49 3103.85 1966.34 3103.75 1966.94 3103.66 1967.53 3103.58 1968.17 3103.51 1968.86 3103.44 1969.55 3103.41 1970.17 3103.41 1970.71 3103.41 1971.54 3103.54 1972.2 3103.82 1972.67 3104.09 1973.14 3104.49 1973.49 3105.03 1973.7 3105.57 1973.92 3106.5 1974.08 3107.83 1974.19L3107.38 1976.18 3090.72 1976.18 3091.17 1974.19C3092.2 1974.03 3092.97 1973.77 3093.48 1973.4 3093.99 1973.04 3094.43 1972.53 3094.78 1971.88 3095.13 1971.23 3095.45 1970.44 3095.75 1969.51 3096.05 1968.58 3096.49 1966.77 3097.09 1964.1L3103.98 1932.89C3104.57 1930.19 3104.87 1928.06 3104.87 1926.49 3104.87 1925.17 3104.56 1924.25 3103.94 1923.73 3103.32 1923.22 3102.3 1922.92 3100.9 1922.84Z" fill-rule="evenodd"/><text fill="#000000" fill-opacity="0" font-family="Arial,Arial_MSFontService,sans-serif" font-size="55.3198" x="3090.72" y="1969.26">๐</text><path d="M3117.49 1904.6 3122.92 1904.6 3137.1 1914.85 3135.52 1917.16 3120.65 1909.83 3120.2 1909.83 3105.01 1917.16 3103.43 1914.85Z" fill-rule="evenodd"/><text fill="#000000" fill-opacity="0" font-family="Arial,Arial_MSFontService,sans-serif" font-size="12.5635" x="3103.43" y="1915.59">เท</text><path d="M3200.43 1913.85 3218.51 1913.85 3218.51 1991.14 3200.43 1991.14 3200.43 1988.02 3211.78 1988.02 3211.78 1916.98 3200.43 1916.98ZM3150.66 1913.85 3168.74 1913.85 3168.74 1916.98 3157.39 1916.98 3157.39 1988.02 3168.74 1988.02 3168.74 1991.14 3150.66 1991.14Z" fill-rule="evenodd"/><path d="M3191.17 1918.22 3193.56 1918.22 3183.59 1963.09C3182.99 1965.76 3182.7 1967.76 3182.7 1969.08 3182.7 1970.17 3182.87 1970.95 3183.22 1971.44 3183.58 1971.92 3184.13 1972.16 3184.89 1972.16 3185.7 1972.16 3186.56 1971.83 3187.48 1971.17 3188.4 1970.51 3189.7 1969.25 3191.37 1967.38L3193.68 1969.65C3191.06 1972.41 3188.92 1974.29 3187.26 1975.31 3185.59 1976.32 3183.74 1976.83 3181.68 1976.83 3179.93 1976.83 3178.52 1976.18 3177.47 1974.9 3176.42 1973.62 3175.89 1971.98 3175.89 1969.98 3175.89 1968.17 3176.27 1965.55 3177.02 1962.11L3184.28 1929.65C3184.6 1928.22 3184.83 1927.08 3184.97 1926.23 3185.1 1925.38 3185.17 1924.59 3185.17 1923.86 3185.17 1923.05 3185.02 1922.43 3184.72 1922.01 3184.43 1921.59 3184 1921.29 3183.45 1921.1 3182.89 1920.91 3181.9 1920.78 3180.47 1920.7L3180.95 1918.59Z" fill-rule="evenodd"/><text fill="#000000" fill-opacity="0" font-family="Arial,Arial_MSFontService,sans-serif" font-size="58.6025" x="3175.89" y="1969.5">๐</text><path d="M3751 1899 4790.37 1899" stroke="#7F7F7F" stroke-width="10.3125" stroke-miterlimit="8" fill="none" fill-rule="evenodd"/><path d="M0 0 0.000360892 649.606" stroke="#7F7F7F" stroke-width="10.3125" stroke-miterlimit="8" fill="none" fill-rule="evenodd" transform="matrix(1 0 0 -1 3751 1879.61)"/><path d="M0 0 0.000360892 389.764" stroke="#ED7D31" stroke-width="10.3125" stroke-miterlimit="8" fill="none" fill-rule="evenodd" transform="matrix(1 0 0 -1 4011 1898.76)"/><path d="M0 0 0.000360892 389.764" stroke="#ED7D31" stroke-width="10.3125" stroke-miterlimit="8" fill="none" fill-rule="evenodd" transform="matrix(1 0 0 -1 4529 1898.76)"/><path d="M0 0 0.000360892 389.764" stroke="#ED7D31" stroke-width="10.3125" stroke-miterlimit="8" fill="none" fill-rule="evenodd" transform="matrix(1 0 0 -1 4270 1895.76)"/><path d="M0 0 0.000360892 389.764" stroke="#ED7D31" stroke-width="10.3125" stroke-miterlimit="8" fill="none" fill-rule="evenodd" transform="matrix(1 0 0 -1 4789 1901.76)"/><path d="M0 0 0.000360892 255.238" stroke="#7F7F7F" stroke-width="10.3125" stroke-miterlimit="8" fill="none" fill-rule="evenodd" transform="matrix(1 0 0 -1 4139 1485.24)"/><path d="M0 0 0.000360892 255.238" stroke="#7F7F7F" stroke-width="10.3125" stroke-miterlimit="8" fill="none" fill-rule="evenodd" transform="matrix(1 0 0 -1 4658 1491.24)"/><rect x="3687" y="1831" width="130" height="130" stroke="#2F5597" stroke-width="10.3125" stroke-miterlimit="8" fill="#8FAADC"/><path d="M3947 1896C3947 1860.1 3976.1 1831 4012 1831 4047.9 1831 4077 1860.1 4077 1896 4077 1931.9 4047.9 1961 4012 1961 3976.1 1961 3947 1931.9 3947 1896Z" stroke="#548235" stroke-width="10.3125" stroke-miterlimit="8" fill="#A9D18E" fill-rule="evenodd"/><path d="M4207 1896C4207 1860.1 4236.1 1831 4272 1831 4307.9 1831 4337 1860.1 4337 1896 4337 1931.9 4307.9 1961 4272 1961 4236.1 1961 4207 1931.9 4207 1896Z" stroke="#548235" stroke-width="10.3125" stroke-miterlimit="8" fill="#A9D18E" fill-rule="evenodd"/><path d="M4726 1896C4726 1860.1 4755.1 1831 4791 1831 4826.9 1831 4856 1860.1 4856 1896 4856 1931.9 4826.9 1961 4791 1961 4755.1 1961 4726 1931.9 4726 1896Z" stroke="#548235" stroke-width="10.3125" stroke-miterlimit="8" fill="#A9D18E" fill-rule="evenodd"/><path d="M4467 1899C4467 1863.1 4496.1 1834 4532 1834 4567.9 1834 4597 1863.1 4597 1899 4597 1934.9 4567.9 1964 4532 1964 4496.1 1964 4467 1934.9 4467 1899Z" stroke="#548235" stroke-width="10.3125" stroke-miterlimit="8" fill="#A9D18E" fill-rule="evenodd"/><path d="M3687 1628.84C3687 1615.67 3697.67 1605 3710.84 1605L4832.16 1605C4845.33 1605 4856 1615.67 4856 1628.84L4856 1711.16C4856 1724.33 4845.33 1735 4832.16 1735L3710.84 1735C3697.67 1735 3687 1724.33 3687 1711.16Z" stroke="#7F7F7F" stroke-width="10.3125" stroke-miterlimit="8" fill="#FFFFFF" fill-rule="evenodd"/><path d="M3944 1472C3944 1436.1 3973.1 1407 4009 1407L4269 1407C4304.9 1407 4334 1436.1 4334 1472L4334 1472C4334 1507.9 4304.9 1537 4269 1537L4009 1537C3973.1 1537 3944 1507.9 3944 1472Z" stroke="#7030A0" stroke-width="10.3125" stroke-miterlimit="8" fill="#CCCCFF" fill-rule="evenodd"/><path d="M4463 1471C4463 1435.1 4492.1 1406 4528 1406L4788 1406C4823.9 1406 4853 1435.1 4853 1471L4853 1471C4853 1506.9 4823.9 1536 4788 1536L4528 1536C4492.1 1536 4463 1506.9 4463 1471Z" stroke="#7030A0" stroke-width="10.3125" stroke-miterlimit="8" fill="#CCCCFF" fill-rule="evenodd"/><path d="M3752 1248 4661.45 1248" stroke="#7F7F7F" stroke-width="10.3125" stroke-miterlimit="8" fill="none" fill-rule="evenodd"/><rect x="3687" y="1184" width="130" height="130" stroke="#BF9000" stroke-width="10.3125" stroke-miterlimit="8" fill="#FFD966"/><rect x="4077" y="1184" width="130" height="130" stroke="#BF9000" stroke-width="10.3125" stroke-miterlimit="8" fill="#FFD966"/><rect x="4596" y="1183" width="130" height="130" stroke="#BF9000" stroke-width="10.3125" stroke-miterlimit="8" fill="#FFD966"/><path d="M0 0 1039.37 0.000360892" stroke="#7F7F7F" stroke-width="10.3125" stroke-miterlimit="8" fill="none" fill-rule="evenodd" transform="matrix(1 0 0 -1 3751 567)"/><path d="M4011 568 4011 957.648" stroke="#ED7D31" stroke-width="10.3125" stroke-miterlimit="8" fill="none" fill-rule="evenodd"/><path d="M4530 568 4530 957.648" stroke="#ED7D31" stroke-width="10.3125" stroke-miterlimit="8" fill="none" fill-rule="evenodd"/><path d="M4271 571 4271 960.649" stroke="#ED7D31" stroke-width="10.3125" stroke-miterlimit="8" fill="none" fill-rule="evenodd"/><path d="M4789 565 4789 954.649" stroke="#ED7D31" stroke-width="10.3125" stroke-miterlimit="8" fill="none" fill-rule="evenodd"/><path d="M4139 1088 4139 1186.55" stroke="#7F7F7F" stroke-width="10.3125" stroke-miterlimit="8" fill="none" fill-rule="evenodd"/><rect x="0" y="0" width="130" height="130" stroke="#2F5597" stroke-width="10.3125" stroke-miterlimit="8" fill="#8FAADC" transform="matrix(1 0 0 -1 3687 635)"/><path d="M0 65C-8.27536e-15 29.1015 29.1015-8.27536e-15 65-1.65507e-14 100.898-3.31015e-14 130 29.1015 130 65 130 100.898 100.898 130 65 130 29.1015 130-4.13768e-14 100.898 0 65Z" stroke="#548235" stroke-width="10.3125" stroke-miterlimit="8" fill="#A9D18E" fill-rule="evenodd" transform="matrix(1 0 0 -1 3947 635)"/><path d="M0 65C-8.27536e-15 29.1015 29.1015-8.27536e-15 65-1.65507e-14 100.898-3.31015e-14 130 29.1015 130 65 130 100.898 100.898 130 65 130 29.1015 130-4.13768e-14 100.898 0 65Z" stroke="#548235" stroke-width="10.3125" stroke-miterlimit="8" fill="#A9D18E" fill-rule="evenodd" transform="matrix(1 0 0 -1 4207 635)"/><path d="M0 65C-8.27536e-15 29.1015 29.1015-8.27536e-15 65-1.65507e-14 100.898-3.31015e-14 130 29.1015 130 65 130 100.898 100.898 130 65 130 29.1015 130-4.13768e-14 100.898 0 65Z" stroke="#548235" stroke-width="10.3125" stroke-miterlimit="8" fill="#A9D18E" fill-rule="evenodd" transform="matrix(1 0 0 -1 4727 635)"/><path d="M0 65.0002C-8.27536e-15 29.1016 29.1015-8.27539e-15 65-1.65508e-14 100.898-3.31015e-14 130 29.1016 130 65.0002 130 100.899 100.898 130 65 130 29.1015 130-4.13768e-14 100.899 0 65.0002Z" stroke="#548235" stroke-width="10.3125" stroke-miterlimit="8" fill="#A9D18E" fill-rule="evenodd" transform="matrix(1 0 0 -1 4467 632)"/><path d="M0 23.6561C-9.30979e-15 10.5912 10.5911 0 23.6559 0L1146.34 0C1159.41-4.65493e-15 1170 10.5912 1170 23.6561L1170 105.344C1170 118.409 1159.41 129 1146.34 129L23.6559 129C10.5911 129 0 118.409 0 105.344Z" stroke="#7F7F7F" stroke-width="10.3125" stroke-miterlimit="8" fill="#FFFFFF" fill-rule="evenodd" transform="matrix(1 0 0 -1 3687 861)"/><path d="M0 64.5003C-1.23812e-14 28.8778 28.8777 0 64.5003 0L324.5 0C360.123-1.23812e-14 389.001 28.8778 389.001 64.5003L389 64.5003C389 100.123 360.122 129.001 324.5 129.001L64.5003 129C28.8777 129 0 100.122 0 64.4999Z" stroke="#7030A0" stroke-width="10.3125" stroke-miterlimit="8" fill="#CCCCFF" fill-rule="evenodd" transform="matrix(1 0 0 -1 4464 1060)"/><path d="M4215.75 2033.85 4220.04 2035.27 4207.03 2083.5 4220.04 2131.68 4215.75 2133.14 4199.58 2084.99 4199.58 2082ZM4484.54 2033.81 4500.71 2082 4500.71 2084.99 4484.54 2133.14 4480.25 2131.68 4493.26 2083.5 4480.25 2035.23ZM4292.09 2033.36 4298.33 2033.36 4298.33 2133.63 4292.09 2133.63ZM4401.95 2033.36 4408.19 2033.36 4408.19 2133.63 4401.95 2133.63Z" fill-rule="evenodd"/><path d="M4252.98 2071.07C4248.2 2071.31 4244.06 2073.38 4240.56 2077.27 4237.06 2081.16 4235.31 2085.96 4235.31 2091.66 4235.31 2095.17 4236.24 2098.12 4238.11 2100.49 4239.97 2102.87 4242.47 2104.21 4245.6 2104.51ZM4259.38 2070.99 4252.01 2104.47C4255.3 2104.33 4258.3 2103.34 4261 2101.51 4263.71 2099.67 4265.83 2097.18 4267.37 2094.05 4268.91 2090.92 4269.68 2087.51 4269.68 2083.84 4269.68 2081.68 4269.3 2079.66 4268.54 2077.8 4267.79 2075.93 4266.62 2074.39 4265.04 2073.16 4263.46 2071.93 4261.57 2071.21 4259.38 2070.99ZM4257.52 2050.36 4263.92 2050.36 4260.11 2067.75C4265.57 2068.15 4269.72 2069.75 4272.57 2072.53 4275.42 2075.31 4276.85 2079.08 4276.85 2083.84 4276.85 2087.43 4276.22 2090.69 4274.95 2093.62 4273.68 2096.56 4271.81 2099.12 4269.35 2101.32 4266.89 2103.53 4264.27 2105.15 4261.47 2106.19 4258.67 2107.23 4255.26 2107.75 4251.24 2107.75L4247.55 2124.61 4241.15 2124.61 4244.83 2107.75C4239.48 2107.34 4235.37 2105.74 4232.49 2102.95 4229.62 2100.15 4228.18 2096.36 4228.18 2091.58 4228.18 2087.5 4229.24 2083.64 4231.36 2080.01 4233.48 2076.37 4236.42 2073.44 4240.19 2071.21 4243.96 2068.98 4248.48 2067.83 4253.75 2067.75Z" fill-rule="evenodd"/><text fill="#000000" fill-opacity="0" font-family="Arial,Arial_MSFontService,sans-serif" font-size="74.2461" x="4228.18" y="2115.33">๐</text><path d="M4321.11 2051.86 4337.32 2051.86 4336.87 2053.85C4335.84 2054.06 4335.11 2054.31 4334.66 2054.58 4334.22 2054.85 4333.82 2055.25 4333.47 2055.79 4333.12 2056.33 4332.75 2057.18 4332.37 2058.32 4331.99 2059.47 4331.52 2061.34 4330.95 2063.94L4328.2 2076.34 4349.96 2076.34 4352.72 2063.9C4352.96 2062.79 4353.17 2061.61 4353.34 2060.35 4353.52 2059.09 4353.61 2058.1 4353.61 2057.37 4353.61 2056.1 4353.29 2055.22 4352.66 2054.72 4352.02 2054.22 4351.01 2053.93 4349.64 2053.85L4350.08 2051.86 4366.29 2051.86 4365.85 2053.85C4364.82 2054.06 4364.08 2054.31 4363.64 2054.58 4363.19 2054.85 4362.79 2055.25 4362.44 2055.79 4362.09 2056.33 4361.73 2057.18 4361.35 2058.32 4360.97 2059.47 4360.5 2061.34 4359.93 2063.94L4353 2095.39C4352.65 2096.98 4352.42 2098.24 4352.31 2099.18 4352.2 2100.11 4352.15 2100.95 4352.15 2101.71 4352.15 2102.93 4352.45 2103.78 4353.06 2104.28 4353.67 2104.78 4354.69 2105.09 4356.12 2105.19L4355.68 2107.18 4339.46 2107.18 4339.91 2105.19C4340.94 2105.03 4341.71 2104.77 4342.22 2104.4 4342.73 2104.04 4343.17 2103.53 4343.52 2102.88 4343.87 2102.24 4344.19 2101.45 4344.49 2100.51 4344.79 2099.58 4345.23 2097.78 4345.83 2095.1L4349.15 2080.07 4327.39 2080.07 4324.02 2095.39C4323.73 2096.74 4323.51 2097.85 4323.38 2098.73 4323.24 2099.61 4323.17 2100.6 4323.17 2101.71 4323.17 2102.87 4323.44 2103.71 4323.98 2104.22 4324.52 2104.74 4325.58 2105.06 4327.14 2105.19L4326.7 2107.18 4310.49 2107.18 4310.93 2105.19C4311.96 2105.03 4312.73 2104.77 4313.24 2104.4 4313.76 2104.04 4314.19 2103.53 4314.54 2102.88 4314.89 2102.24 4315.22 2101.45 4315.51 2100.51 4315.81 2099.58 4316.26 2097.78 4316.85 2095.1L4323.74 2063.9C4323.98 2062.79 4324.19 2061.61 4324.37 2060.35 4324.54 2059.09 4324.63 2058.1 4324.63 2057.37 4324.63 2056.1 4324.31 2055.22 4323.68 2054.72 4323.04 2054.22 4322.04 2053.93 4320.66 2053.85Z" fill-rule="evenodd"/><text fill="#000000" fill-opacity="0" font-family="Arial,Arial_MSFontService,sans-serif" font-size="55.3198" x="4310.49" y="2100.27">๐ป</text><path d="M4334.47 2035.8C4335.39 2035.8 4336.26 2035.86 4337.07 2035.97 4337.88 2036.07 4338.71 2036.24 4339.58 2036.45 4340.44 2036.67 4341.37 2036.95 4342.35 2037.3 4343.34 2037.65 4344.47 2038.07 4345.74 2038.56 4346.96 2039.02 4348.02 2039.4 4348.94 2039.71 4349.86 2040.03 4350.7 2040.28 4351.45 2040.46 4352.21 2040.65 4352.92 2040.78 4353.58 2040.85 4354.24 2040.92 4354.94 2040.95 4355.67 2040.95 4356.75 2040.95 4357.73 2040.85 4358.61 2040.65 4359.48 2040.44 4360.31 2040.14 4361.08 2039.73 4361.85 2039.33 4362.61 2038.82 4363.35 2038.21 4364.09 2037.61 4364.88 2036.88 4365.72 2036.05L4367.95 2037.75C4366.81 2039.34 4365.71 2040.67 4364.62 2041.74 4363.54 2042.81 4362.46 2043.67 4361.38 2044.31 4360.3 2044.96 4359.2 2045.42 4358.08 2045.69 4356.96 2045.96 4355.8 2046.1 4354.61 2046.1 4353.75 2046.1 4352.9 2046.04 4352.06 2045.92 4351.22 2045.79 4350.36 2045.61 4349.47 2045.37 4348.58 2045.12 4347.64 2044.83 4346.65 2044.5 4345.67 2044.16 4344.6 2043.76 4343.47 2043.3 4341.31 2042.46 4339.47 2041.86 4337.96 2041.5 4336.44 2041.13 4335.05 2040.95 4333.78 2040.95 4332.87 2040.95 4331.98 2041 4331.13 2041.09 4330.28 2041.19 4329.43 2041.4 4328.58 2041.72 4327.73 2042.04 4326.87 2042.53 4326 2043.18 4325.14 2043.83 4324.22 2044.71 4323.25 2045.81L4320.9 2044.11C4321.9 2042.65 4322.89 2041.4 4323.88 2040.34 4324.86 2039.29 4325.89 2038.43 4326.98 2037.77 4328.06 2037.11 4329.2 2036.61 4330.42 2036.29 4331.64 2035.97 4332.99 2035.8 4334.47 2035.8Z" fill-rule="evenodd"/><text fill="#000000" fill-opacity="0" font-family="Arial,Arial_MSFontService,sans-serif" font-size="10.2939" x="4320.9" y="2044.81">เทฉ</text><path d="M4380.75 2043.63 4388.33 2043.63 4388.33 2045.94 4378.56 2069.45 4375.12 2068.44Z" fill-rule="evenodd"/><text fill="#000000" fill-opacity="0" font-family="Arial,Arial_MSFontService,sans-serif" font-size="25.8159" x="4375.12" y="2066.22">โฒ</text><path d="M4446.85 2071.07C4442.07 2071.31 4437.93 2073.38 4434.43 2077.27 4430.93 2081.16 4429.18 2085.96 4429.18 2091.66 4429.18 2095.17 4430.12 2098.12 4431.98 2100.49 4433.85 2102.87 4436.34 2104.21 4439.48 2104.51ZM4453.26 2070.99 4445.88 2104.47C4449.18 2104.33 4452.18 2103.34 4454.88 2101.51 4457.58 2099.67 4459.7 2097.18 4461.24 2094.05 4462.78 2090.92 4463.55 2087.51 4463.55 2083.84 4463.55 2081.68 4463.17 2079.66 4462.42 2077.8 4461.66 2075.93 4460.49 2074.39 4458.91 2073.16 4457.33 2071.93 4455.45 2071.21 4453.26 2070.99ZM4451.39 2050.36 4457.8 2050.36 4453.99 2067.75C4459.44 2068.15 4463.6 2069.75 4466.45 2072.53 4469.3 2075.31 4470.73 2079.08 4470.73 2083.84 4470.73 2087.43 4470.09 2090.69 4468.82 2093.62 4467.55 2096.56 4465.69 2099.12 4463.23 2101.32 4460.77 2103.53 4458.14 2105.15 4455.34 2106.19 4452.55 2107.23 4449.14 2107.75 4445.11 2107.75L4441.42 2124.61 4435.02 2124.61 4438.71 2107.75C4433.36 2107.34 4429.25 2105.74 4426.37 2102.95 4423.49 2100.15 4422.05 2096.36 4422.05 2091.58 4422.05 2087.5 4423.11 2083.64 4425.23 2080.01 4427.35 2076.37 4430.3 2073.44 4434.07 2071.21 4437.84 2068.98 4442.36 2067.83 4447.62 2067.75Z" fill-rule="evenodd"/><text fill="#000000" fill-opacity="0" font-family="Arial,Arial_MSFontService,sans-serif" font-size="74.2461" x="4422.05" y="2115.33">๐</text><text font-family="Times New Roman,Times New Roman_MSFontService,sans-serif" font-weight="400" font-size="83" transform="matrix(1 0 0 1 2216.66 454)">(a)</text><text font-family="Times New Roman,Times New Roman_MSFontService,sans-serif" font-weight="400" font-size="83" transform="translate(2216.66 1782)">(b)</text><text font-family="Times New Roman,Times New Roman_MSFontService,sans-serif" font-weight="400" font-size="83" transform="translate(3641.38 462)">(c)</text><text font-family="Times New Roman,Times New Roman_MSFontService,sans-serif" font-weight="400" font-size="83" transform="matrix(1 0 0 1 4239.51 1206)">b</text><text font-family="Times New Roman,Times New Roman_MSFontService,sans-serif" font-weight="400" font-size="83" transform="matrix(1 0 0 1 3935.63 996)">f</text><text font-family="Times New Roman,Times New Roman_MSFontService,sans-serif" font-weight="400" font-size="83" transform="matrix(1 0 0 1 4198.12 1001)">f</text><path d="M2402.76 2240.91 2397.73 2264.13C2399.38 2264.24 2401.41 2264.29 2403.81 2264.29 2407.92 2264.29 2411 2263.83 2413.07 2262.89 2415.14 2261.96 2416.91 2260.31 2418.4 2257.93 2419.89 2255.55 2420.63 2252.62 2420.63 2249.13 2420.63 2246.41 2419.73 2244.35 2417.93 2242.97 2416.14 2241.6 2413.46 2240.91 2409.89 2240.91ZM2414.75 2216.1C2412.4 2216.1 2410.21 2216.14 2408.19 2216.23L2403.61 2237.34 2409.32 2237.34C2412.51 2237.34 2415.04 2237.08 2416.92 2236.57 2418.8 2236.06 2420.45 2235.14 2421.88 2233.81 2423.32 2232.49 2424.36 2231.04 2425.01 2229.46 2425.65 2227.88 2425.98 2226.05 2425.98 2223.97 2425.98 2222.8 2425.78 2221.72 2425.37 2220.7 2424.96 2219.69 2424.27 2218.83 2423.28 2218.11 2422.3 2217.39 2421.16 2216.88 2419.88 2216.57 2418.6 2216.26 2416.89 2216.1 2414.75 2216.1ZM2396.56 2212.54 2416.62 2212.54C2420.67 2212.54 2423.92 2212.96 2426.36 2213.81 2428.81 2214.67 2430.6 2215.92 2431.75 2217.56 2432.9 2219.21 2433.48 2221.28 2433.48 2223.76 2433.48 2227.3 2432.39 2230.39 2430.23 2233.02 2428.07 2235.66 2424.86 2237.68 2420.59 2239.08L2420.51 2239.53C2423.02 2240.53 2424.95 2241.95 2426.3 2243.8 2427.65 2245.66 2428.33 2247.76 2428.33 2250.11 2428.33 2253.7 2427.5 2256.77 2425.86 2259.33 2424.21 2261.88 2421.74 2263.94 2418.44 2265.51 2415.14 2267.07 2410.32 2267.86 2403.97 2267.86L2385.94 2267.86 2386.38 2265.87C2387.41 2265.71 2388.18 2265.45 2388.69 2265.08 2389.21 2264.72 2389.64 2264.21 2389.99 2263.56 2390.34 2262.91 2390.67 2262.12 2390.96 2261.19 2391.26 2260.26 2391.71 2258.46 2392.3 2255.78L2399.19 2224.57C2399.78 2221.87 2400.08 2219.74 2400.08 2218.17 2400.08 2216.85 2399.77 2215.93 2399.15 2215.42 2398.53 2214.9 2397.51 2214.6 2396.11 2214.52Z" fill="#7030A0" fill-rule="evenodd"/><text fill="#000000" fill-opacity="0" font-family="Arial,Arial_MSFontService,sans-serif" font-size="55.3198" x="2385.94" y="2260.94">๐ต</text><path d="M2412.38 2196.28 2417.81 2196.28 2431.99 2206.53 2430.41 2208.84 2415.54 2201.51 2415.09 2201.51 2399.9 2208.84 2398.32 2206.53Z" fill="#7030A0" fill-rule="evenodd"/><text fill="#000000" fill-opacity="0" font-family="Arial,Arial_MSFontService,sans-serif" font-size="12.5635" x="2398.32" y="2207.27">เท</text><path d="M2454.57 2196.19 2461.54 2196.19 2461.54 2198.07 2459.99 2211.11 2470.03 2209.54 2471.82 2209.54 2471.82 2215.64 2470.03 2215.64 2460.44 2214 2460.44 2246.65 2455.68 2246.65 2455.68 2214 2446.14 2215.64 2444.27 2215.64 2444.27 2209.54 2446.14 2209.54 2456.15 2211.11 2454.57 2198.07Z" fill="#7030A0" fill-rule="evenodd"/><text fill="#000000" fill-opacity="0" font-family="Arial,Arial_MSFontService,sans-serif" font-size="50.4561" x="2444.27" y="2240.34">โ</text><path d="M2537.65 2205.54 2555.73 2205.54 2555.73 2282.82 2537.65 2282.82 2537.65 2279.7 2549 2279.7 2549 2208.66 2537.65 2208.66ZM2487.88 2205.54 2505.96 2205.54 2505.96 2208.66 2494.61 2208.66 2494.61 2279.7 2505.96 2279.7 2505.96 2282.82 2487.88 2282.82Z" fill="#7030A0" fill-rule="evenodd"/><path d="M2528.39 2209.9 2530.78 2209.9 2520.81 2254.77C2520.21 2257.44 2519.92 2259.44 2519.92 2260.77 2519.92 2261.85 2520.09 2262.63 2520.44 2263.12 2520.79 2263.6 2521.35 2263.85 2522.1 2263.85 2522.91 2263.85 2523.78 2263.51 2524.7 2262.85 2525.62 2262.19 2526.91 2260.93 2528.59 2259.06L2530.9 2261.33C2528.28 2264.09 2526.14 2265.97 2524.48 2266.99 2522.81 2268 2520.96 2268.51 2518.9 2268.51 2517.15 2268.51 2515.74 2267.86 2514.69 2266.58 2513.63 2265.3 2513.11 2263.66 2513.11 2261.66 2513.11 2259.85 2513.49 2257.23 2514.24 2253.79L2521.5 2221.33C2521.82 2219.9 2522.05 2218.76 2522.19 2217.91 2522.32 2217.06 2522.39 2216.27 2522.39 2215.54 2522.39 2214.73 2522.24 2214.11 2521.94 2213.69 2521.65 2213.27 2521.22 2212.97 2520.67 2212.78 2520.11 2212.59 2519.12 2212.46 2517.69 2212.38L2518.17 2210.27Z" fill="#7030A0" fill-rule="evenodd"/><text fill="#000000" fill-opacity="0" font-family="Arial,Arial_MSFontService,sans-serif" font-size="58.6025" x="2513.11" y="2261.18">๐</text><path d="M2688.95 2240.91 2683.93 2264.13C2685.57 2264.24 2687.6 2264.29 2690 2264.29 2694.11 2264.29 2697.2 2263.83 2699.26 2262.89 2701.33 2261.96 2703.11 2260.31 2704.59 2257.93 2706.08 2255.55 2706.82 2252.62 2706.82 2249.13 2706.82 2246.41 2705.92 2244.35 2704.13 2242.97 2702.33 2241.6 2699.65 2240.91 2696.08 2240.91ZM2700.95 2216.1C2698.6 2216.1 2696.41 2216.14 2694.38 2216.23L2689.8 2237.34 2695.52 2237.34C2698.7 2237.34 2701.24 2237.08 2703.11 2236.57 2704.99 2236.06 2706.65 2235.14 2708.08 2233.81 2709.51 2232.49 2710.55 2231.04 2711.2 2229.46 2711.85 2227.88 2712.17 2226.05 2712.17 2223.97 2712.17 2222.8 2711.97 2221.72 2711.56 2220.7 2711.16 2219.69 2710.46 2218.83 2709.48 2218.11 2708.49 2217.39 2707.36 2216.88 2706.07 2216.57 2704.79 2216.26 2703.08 2216.1 2700.95 2216.1ZM2682.75 2212.54 2702.81 2212.54C2706.86 2212.54 2710.11 2212.96 2712.56 2213.81 2715 2214.67 2716.8 2215.92 2717.95 2217.56 2719.1 2219.21 2719.67 2221.28 2719.67 2223.76 2719.67 2227.3 2718.59 2230.39 2716.43 2233.02 2714.27 2235.66 2711.05 2237.68 2706.78 2239.08L2706.7 2239.53C2709.21 2240.53 2711.15 2241.95 2712.5 2243.8 2713.85 2245.66 2714.52 2247.76 2714.52 2250.11 2714.52 2253.7 2713.7 2256.77 2712.05 2259.33 2710.4 2261.88 2707.93 2263.94 2704.63 2265.51 2701.34 2267.07 2696.52 2267.86 2690.17 2267.86L2672.13 2267.86 2672.58 2265.87C2673.6 2265.71 2674.37 2265.45 2674.89 2265.08 2675.4 2264.72 2675.83 2264.21 2676.18 2263.56 2676.54 2262.91 2676.86 2262.12 2677.16 2261.19 2677.45 2260.26 2677.9 2258.46 2678.49 2255.78L2685.38 2224.57C2685.98 2221.87 2686.28 2219.74 2686.28 2218.17 2686.28 2216.85 2685.96 2215.93 2685.34 2215.42 2684.72 2214.9 2683.71 2214.6 2682.3 2214.52Z" fill="#7030A0" fill-rule="evenodd"/><text fill="#000000" fill-opacity="0" font-family="Arial,Arial_MSFontService,sans-serif" font-size="55.3198" x="2672.13" y="2260.94">๐ต</text><path d="M2698.57 2196.28 2704 2196.28 2718.19 2206.53 2716.61 2208.84 2701.74 2201.51 2701.29 2201.51 2686.09 2208.84 2684.51 2206.53Z" fill="#7030A0" fill-rule="evenodd"/><text fill="#000000" fill-opacity="0" font-family="Arial,Arial_MSFontService,sans-serif" font-size="12.5635" x="2684.51" y="2207.27">เท</text><path d="M2785.48 2205.54 2803.56 2205.54 2803.56 2282.82 2785.48 2282.82 2785.48 2279.7 2796.83 2279.7 2796.83 2208.66 2785.48 2208.66ZM2735.71 2205.54 2753.79 2205.54 2753.79 2208.66 2742.44 2208.66 2742.44 2279.7 2753.79 2279.7 2753.79 2282.82 2735.71 2282.82Z" fill="#7030A0" fill-rule="evenodd"/><path d="M2776.22 2209.9 2778.61 2209.9 2768.64 2254.77C2768.04 2257.44 2767.75 2259.44 2767.75 2260.77 2767.75 2261.85 2767.92 2262.63 2768.27 2263.12 2768.63 2263.6 2769.18 2263.85 2769.94 2263.85 2770.75 2263.85 2771.61 2263.51 2772.53 2262.85 2773.45 2262.19 2774.75 2260.93 2776.42 2259.06L2778.73 2261.33C2776.11 2264.09 2773.97 2265.97 2772.31 2266.99 2770.65 2268 2768.79 2268.51 2766.73 2268.51 2764.98 2268.51 2763.57 2267.86 2762.52 2266.58 2761.47 2265.3 2760.94 2263.66 2760.94 2261.66 2760.94 2259.85 2761.32 2257.23 2762.07 2253.79L2769.33 2221.33C2769.65 2219.9 2769.88 2218.76 2770.02 2217.91 2770.15 2217.06 2770.22 2216.27 2770.22 2215.54 2770.22 2214.73 2770.07 2214.11 2769.77 2213.69 2769.48 2213.27 2769.05 2212.97 2768.5 2212.78 2767.94 2212.59 2766.95 2212.46 2765.52 2212.38L2766.01 2210.27Z" fill="#7030A0" fill-rule="evenodd"/><text fill="#000000" fill-opacity="0" font-family="Arial,Arial_MSFontService,sans-serif" font-size="58.6025" x="2760.94" y="2261.18">๐</text><text font-family="Times New Roman,Times New Roman_MSFontService,sans-serif" font-weight="400" font-size="83" transform="matrix(1 0 0 1 2919.94 1905)">b</text><text font-family="Times New Roman,Times New Roman_MSFontService,sans-serif" font-weight="400" font-size="83" transform="translate(2250.05 1906)">g</text><text font-family="Times New Roman,Times New Roman_MSFontService,sans-serif" font-weight="400" font-size="83" transform="translate(2473.19 1053)">f</text><text font-family="Times New Roman,Times New Roman_MSFontService,sans-serif" font-weight="400" font-size="83" transform="matrix(1 0 0 1 2735.68 1059)">f</text><text font-family="Times New Roman,Times New Roman_MSFontService,sans-serif" font-weight="400" font-size="83" transform="matrix(1 0 0 1 2473.5 924)">h</text><text font-family="Times New Roman,Times New Roman_MSFontService,sans-serif" font-weight="400" font-size="83" transform="matrix(1 0 0 1 2735.99 929)">h</text></g></svg>